<svg width="170" height="135" viewBox="0 0 170 135" fill="none" xmlns="http://www.w3.org/2000/svg">
<g clip-path="url(#clip0_10_89)">
<rect x="120" y="99" width="9" height="50" rx="4.5" transform="rotate(-90 120 99)" fill="url(#paint0_linear_10_89)"/>
</g>
<rect y="50.1233" width="9.45205" height="45" rx="4.72603" transform="rotate(-90 0 50.1233)" fill="url(#paint1_linear_10_89)"/>
<ellipse cx="22.6066" cy="29.1644" rx="6.3981" ry="6.16438" fill="url(#paint2_linear_10_89)"/>
<ellipse cx="22.6066" cy="61.8356" rx="6.3981" ry="6.16438" fill="url(#paint3_linear_10_89)"/>
<path d="M56.4375 89.8125H66.5625V134.812H56.4375V89.8125Z" fill="url(#paint4_linear_10_89)"/>
<path d="M39 117.375V107.25H84V117.375H39Z" fill="url(#paint5_linear_10_89)"/>
<path d="M89 8.26532L97.2653 1.47502e-05L134 36.7347L125.735 45L89 8.26532Z" fill="url(#paint6_linear_10_89)"/>
<path d="M125.735 0L134 8.26531L97.2653 45L89 36.7347L125.735 0Z" fill="url(#paint7_linear_10_89)"/>
<defs>
<linearGradient id="paint0_linear_10_89" x1="124.5" y1="99" x2="124.5" y2="149" gradientUnits="userSpaceOnUse">
<stop stop-color="#D121EE"/>
<stop offset="1" stop-color="#741EE1" stop-opacity="0.5"/>
</linearGradient>
<linearGradient id="paint1_linear_10_89" x1="4.72603" y1="50.1233" x2="4.72603" y2="95.1233" gradientUnits="userSpaceOnUse">
<stop stop-color="#D121EE"/>
<stop offset="1" stop-color="#741EE1" stop-opacity="0.5"/>
</linearGradient>
<linearGradient id="paint2_linear_10_89" x1="22.6066" y1="23" x2="22.6066" y2="35.3288" gradientUnits="userSpaceOnUse">
<stop stop-color="#D121EE"/>
<stop offset="1" stop-color="#741EE1" stop-opacity="0.5"/>
</linearGradient>
<linearGradient id="paint3_linear_10_89" x1="22.6066" y1="55.6713" x2="22.6066" y2="68" gradientUnits="userSpaceOnUse">
<stop stop-color="#D121EE"/>
<stop offset="1" stop-color="#741EE1" stop-opacity="0.5"/>
</linearGradient>
<linearGradient id="paint4_linear_10_89" x1="61.5" y1="89.8125" x2="61.5" y2="134.812" gradientUnits="userSpaceOnUse">
<stop stop-color="#D121EE"/>
<stop offset="1" stop-color="#741EE1" stop-opacity="0.5"/>
</linearGradient>
<linearGradient id="paint5_linear_10_89" x1="39" y1="112.312" x2="84" y2="112.312" gradientUnits="userSpaceOnUse">
<stop stop-color="#D121EE"/>
<stop offset="1" stop-color="#741EE1" stop-opacity="0.5"/>
</linearGradient>
<linearGradient id="paint6_linear_10_89" x1="93.1327" y1="4.13267" x2="129.867" y2="40.8674" gradientUnits="userSpaceOnUse">
<stop stop-color="#D121EE"/>
<stop offset="1" stop-color="#741EE1" stop-opacity="0.5"/>
</linearGradient>
<linearGradient id="paint7_linear_10_89" x1="129.867" y1="4.13265" x2="93.1327" y2="40.8673" gradientUnits="userSpaceOnUse">
<stop stop-color="#D121EE"/>
<stop offset="1" stop-color="#741EE1" stop-opacity="0.5"/>
</linearGradient>
<clipPath id="clip0_10_89">
<rect width="50" height="9" fill="white" transform="translate(120 90)"/>
</clipPath>
</defs>
</svg>
