<svg width="390" height="468" viewBox="0 0 390 468" fill="none" xmlns="http://www.w3.org/2000/svg">
<ellipse cx="194.5" cy="448.5" rx="136.5" ry="19.5" fill="#161616" fill-opacity="0.64"/>
<rect x="148.841" width="92.3188" height="390" fill="url(#paint0_linear_46_97)"/>
<rect y="241.159" width="92.3188" height="390" transform="rotate(-90 0 241.159)" fill="url(#paint1_linear_46_97)"/>
<mask id="path-4-inside-1_46_97" fill="white">
<path d="M195 240H210V260H195V240Z"/>
</mask>
<g filter="url(#filter0_i_46_97)">
<path d="M195 240H210V260H195V240Z" fill="#F6F7F0"/>
</g>
<path d="M197 260V240H193V260H197Z" fill="black" mask="url(#path-4-inside-1_46_97)"/>
<mask id="path-6-inside-2_46_97" fill="white">
<path d="M180 240H195V260H180V240Z"/>
</mask>
<g filter="url(#filter1_i_46_97)">
<path d="M180 240H195V260H180V240Z" fill="#F6F7F0"/>
</g>
<path d="M193 240V260H197V240H193Z" fill="black" mask="url(#path-6-inside-2_46_97)"/>
<path d="M121.999 216.56C179.475 249.428 209.879 246.475 261.999 216.56" stroke="black" stroke-width="6"/>
<defs>
<filter id="filter0_i_46_97" x="195" y="240" width="15" height="24" filterUnits="userSpaceOnUse" color-interpolation-filters="sRGB">
<feFlood flood-opacity="0" result="BackgroundImageFix"/>
<feBlend mode="normal" in="SourceGraphic" in2="BackgroundImageFix" result="shape"/>
<feColorMatrix in="SourceAlpha" type="matrix" values="0 0 0 0 0 0 0 0 0 0 0 0 0 0 0 0 0 0 127 0" result="hardAlpha"/>
<feOffset dy="4"/>
<feGaussianBlur stdDeviation="2"/>
<feComposite in2="hardAlpha" operator="arithmetic" k2="-1" k3="1"/>
<feColorMatrix type="matrix" values="0 0 0 0 0 0 0 0 0 0 0 0 0 0 0 0 0 0 0.25 0"/>
<feBlend mode="normal" in2="shape" result="effect1_innerShadow_46_97"/>
</filter>
<filter id="filter1_i_46_97" x="180" y="240" width="15" height="24" filterUnits="userSpaceOnUse" color-interpolation-filters="sRGB">
<feFlood flood-opacity="0" result="BackgroundImageFix"/>
<feBlend mode="normal" in="SourceGraphic" in2="BackgroundImageFix" result="shape"/>
<feColorMatrix in="SourceAlpha" type="matrix" values="0 0 0 0 0 0 0 0 0 0 0 0 0 0 0 0 0 0 127 0" result="hardAlpha"/>
<feOffset dy="4"/>
<feGaussianBlur stdDeviation="2"/>
<feComposite in2="hardAlpha" operator="arithmetic" k2="-1" k3="1"/>
<feColorMatrix type="matrix" values="0 0 0 0 0 0 0 0 0 0 0 0 0 0 0 0 0 0 0.25 0"/>
<feBlend mode="normal" in2="shape" result="effect1_innerShadow_46_97"/>
</filter>
<linearGradient id="paint0_linear_46_97" x1="195" y1="0" x2="195" y2="390" gradientUnits="userSpaceOnUse">
<stop stop-color="#D121EE"/>
<stop offset="1" stop-color="#741EE1" stop-opacity="0.5"/>
</linearGradient>
<linearGradient id="paint1_linear_46_97" x1="46.1594" y1="241.159" x2="46.1594" y2="631.159" gradientUnits="userSpaceOnUse">
<stop stop-color="#D121EE"/>
<stop offset="0.515625" stop-color="#A52DB9" stop-opacity="0.35"/>
<stop offset="1" stop-color="#741EE1"/>
</linearGradient>
</defs>
</svg>
