<svg width="27" height="17" viewBox="0 0 27 17" fill="none" xmlns="http://www.w3.org/2000/svg">
<path d="M6.38281 9.41797L3.25781 9.52539L2.55469 15.6875C2.52865 15.8372 2.44401 15.9186 2.30078 15.9316L0.289062 16.0391C0.145833 16.0391 0.0742188 15.9772 0.0742188 15.8535L1.77344 1.07812C1.79948 0.941406 1.88411 0.866536 2.02734 0.853516L7.37891 0.628906C7.54167 0.648438 7.62305 0.736328 7.62305 0.892578L7.37891 2.91406C7.35938 3.08333 7.27474 3.17122 7.125 3.17773L3.98047 3.28516L3.55078 7.03516L6.63672 6.92773C6.80599 6.93424 6.89062 7.01888 6.89062 7.18164L6.63672 9.17383C6.61068 9.32357 6.52604 9.40495 6.38281 9.41797ZM12.6523 15.8535L11.832 4.16406L11.0996 15.7168C11.0866 15.8796 11.002 15.9642 10.8457 15.9707L8.98047 16.0391C8.83724 16.026 8.76562 15.9642 8.76562 15.8535L10.4453 1.07812C10.4583 1 10.4779 0.944661 10.5039 0.912109C10.5365 0.879557 10.6016 0.860026 10.6992 0.853516L13.1602 0.765625C13.3164 0.772135 13.401 0.85026 13.4141 1L14.3027 12.7578L17.6914 1.07812C17.724 0.934896 17.8151 0.860026 17.9648 0.853516L20.5332 0.765625C20.696 0.772135 20.7773 0.85026 20.7773 1L19.1172 15.7266C19.0977 15.8828 19.0098 15.9642 18.8535 15.9707L16.8418 16.0391C16.7051 16.0391 16.6367 15.9772 16.6367 15.8535L18.541 3.94922L15.0449 15.7363C14.9928 15.8861 14.8984 15.9642 14.7617 15.9707L12.8672 16.0391C12.737 16.026 12.6654 15.9642 12.6523 15.8535ZM26.4707 0.560547L25.0156 11.4883C24.9961 11.651 24.9147 11.7357 24.7715 11.7422L23.0625 11.8105C22.9193 11.804 22.8477 11.7357 22.8477 11.6055L23.8926 0.619141C23.8991 0.482422 23.9837 0.404297 24.1465 0.384766L26.2266 0.316406C26.3893 0.322917 26.4707 0.404297 26.4707 0.560547ZM23.4629 16.1074C23.0397 16.1074 22.6947 15.974 22.4277 15.707C22.1673 15.4336 22.0371 15.0885 22.0371 14.6719C22.0371 14.2487 22.2096 13.8711 22.5547 13.5391C22.8997 13.207 23.2839 13.041 23.707 13.041C24.1367 13.041 24.4818 13.1745 24.7422 13.4414C25.0026 13.7083 25.1328 14.0566 25.1328 14.4863C25.1328 14.9095 24.9603 15.2871 24.6152 15.6191C24.2702 15.9447 23.8861 16.1074 23.4629 16.1074Z" fill="#D366DD" fill-opacity="0.8"/>
</svg>
