<svg width="113" height="35" viewBox="0 0 113 35" fill="none" xmlns="http://www.w3.org/2000/svg">
<path d="M16.0859 16.7852L11.7109 16.9355L10.7266 25.5625C10.6901 25.7721 10.5716 25.8861 10.3711 25.9043L7.55469 26.0547C7.35417 26.0547 7.25391 25.9681 7.25391 25.7949L9.63281 5.10938C9.66927 4.91797 9.78776 4.81315 9.98828 4.79492L17.4805 4.48047C17.7083 4.50781 17.8223 4.63086 17.8223 4.84961L17.4805 7.67969C17.4531 7.91667 17.3346 8.03971 17.125 8.04883L12.7227 8.19922L12.1211 13.4492L16.4414 13.2988C16.6784 13.3079 16.7969 13.4264 16.7969 13.6543L16.4414 16.4434C16.4049 16.653 16.2865 16.7669 16.0859 16.7852ZM26.5176 25.7129L26.627 24.6602C25.5241 25.6536 24.2754 26.1504 22.8809 26.1504C21.8327 26.1504 21.0579 25.7676 20.5566 25.002C20.0645 24.2363 19.8184 23.2793 19.8184 22.1309C19.8184 21.9395 19.8366 21.6797 19.873 21.3516L21.1719 9.9082C21.1992 9.68945 21.3132 9.57552 21.5137 9.56641L24.2754 9.45703C24.4668 9.47526 24.5625 9.57096 24.5625 9.74414L23.332 20.5312C23.3047 20.7682 23.291 20.987 23.291 21.1875C23.291 21.9531 23.4368 22.4635 23.7285 22.7188C24.0293 22.974 24.4759 23.1016 25.0684 23.1016C25.6699 23.1016 26.2624 22.9876 26.8457 22.7598L28.2949 9.9082C28.3223 9.68945 28.4362 9.57552 28.6367 9.56641L31.3984 9.4707C31.5898 9.48893 31.6855 9.58464 31.6855 9.75781L29.9082 25.5762C29.8809 25.7949 29.7578 25.9134 29.5391 25.9316L26.873 26.0547C26.6361 26.0456 26.5176 25.9316 26.5176 25.7129ZM39.1641 9.82617L39.0137 11.084C40.3262 9.92643 41.584 9.34766 42.7871 9.34766C44.3184 9.34766 45.2845 10.1862 45.6855 11.8633C45.7949 12.319 45.8496 12.752 45.8496 13.1621C45.8496 13.5632 45.8359 13.8867 45.8086 14.1328L44.4961 25.5898C44.4596 25.8177 44.3457 25.9408 44.1543 25.959L41.3926 26.0547C41.1921 26.0365 41.0918 25.9499 41.0918 25.7949L42.3359 14.9668C42.3633 14.7298 42.377 14.5156 42.377 14.3242C42.377 13.5768 42.1992 13.071 41.8438 12.8066C41.4974 12.5332 41.0553 12.3965 40.5176 12.3965C39.9798 12.3965 39.4193 12.5104 38.8359 12.7383L37.373 25.5898C37.3366 25.8177 37.2227 25.9408 37.0312 25.959L34.2695 26.0547C34.069 26.0365 33.9688 25.9499 33.9688 25.7949L35.7734 9.89453C35.8099 9.69401 35.9238 9.58464 36.1152 9.56641L38.7949 9.4707C39.041 9.47982 39.1641 9.59831 39.1641 9.82617ZM54.0664 25.7949L52.918 9.42969L51.8926 25.6035C51.8743 25.8314 51.7559 25.9499 51.5371 25.959L48.9258 26.0547C48.7253 26.0365 48.625 25.9499 48.625 25.7949L50.9766 5.10938C50.9948 5 51.0221 4.92253 51.0586 4.87695C51.1042 4.83138 51.1953 4.80404 51.332 4.79492L54.7773 4.67188C54.9961 4.68099 55.1146 4.79036 55.1328 5L56.377 21.4609L61.1211 5.10938C61.1667 4.90885 61.2943 4.80404 61.5039 4.79492L65.0996 4.67188C65.3275 4.68099 65.4414 4.79036 65.4414 5L63.1172 25.6172C63.0898 25.8359 62.9668 25.9499 62.748 25.959L59.9316 26.0547C59.7402 26.0547 59.6445 25.9681 59.6445 25.7949L62.3105 9.12891L57.416 25.6309C57.3431 25.8405 57.2109 25.9499 57.0195 25.959L54.3672 26.0547C54.1849 26.0365 54.0846 25.9499 54.0664 25.7949ZM79.3457 9.82617L77.5684 25.5898C77.541 25.8268 77.4225 25.9499 77.2129 25.959L74.4512 26.0547C74.2598 26.0365 74.1641 25.9499 74.1641 25.7949L74.4238 23.9355C74.0046 24.6465 73.5443 25.1934 73.043 25.5762C72.5508 25.959 71.9948 26.1504 71.375 26.1504C70.7552 26.1504 70.2266 26.0456 69.7891 25.8359C69.3516 25.6172 68.9915 25.3346 68.709 24.9883C68.4355 24.6328 68.2122 24.209 68.0391 23.7168C67.7201 22.8418 67.5605 21.6478 67.5605 20.1348C67.5605 18.6126 67.6608 17.3229 67.8613 16.2656C68.071 15.2083 68.2533 14.4062 68.4082 13.8594C68.5632 13.3034 68.7682 12.7337 69.0234 12.1504C69.2878 11.5671 69.584 11.0794 69.9121 10.6875C70.6595 9.79427 71.6029 9.34766 72.7422 9.34766C73.5898 9.34766 74.237 9.55273 74.6836 9.96289C75.1302 10.3639 75.5039 10.9609 75.8047 11.7539L75.9688 9.89453C75.987 9.69401 76.1009 9.58464 76.3105 9.56641L78.9902 9.4707C79.2272 9.48893 79.3457 9.60742 79.3457 9.82617ZM71.0059 19.7383C71.0059 21.9167 71.5892 23.0059 72.7559 23.0059C73.2663 23.0059 73.681 22.7734 74 22.3086C74.319 21.8346 74.5924 20.8913 74.8203 19.4785C75.0573 18.0658 75.1758 17.0358 75.1758 16.3887C75.1758 15.7415 75.1712 15.3314 75.1621 15.1582C75.153 14.985 75.1348 14.7572 75.1074 14.4746C75.0801 14.1829 75.0299 13.9414 74.957 13.75C74.8841 13.5495 74.7884 13.349 74.6699 13.1484C74.4329 12.7565 74.0501 12.5605 73.5215 12.5605C72.9928 12.5605 72.5736 12.7975 72.2637 13.2715C71.9538 13.7363 71.7122 14.3607 71.5391 15.1445C71.1836 16.8216 71.0059 18.3529 71.0059 19.7383ZM83.7891 9.52539C83.9987 7.52018 84.1354 6.48568 84.1992 6.42188C84.263 6.34896 84.3587 6.30794 84.4863 6.29883L87.0977 6.20312C87.3438 6.22135 87.4668 6.33529 87.4668 6.54492C87.2936 7.55664 87.1478 8.52734 87.0293 9.45703L90.2148 9.34766C90.4336 9.35677 90.543 9.47526 90.543 9.70312L90.1602 11.877C90.1237 12.0957 90.0098 12.2096 89.8184 12.2188L86.6875 12.3418C86.0677 17.9199 85.7578 20.9961 85.7578 21.5703C85.7578 22.6367 86.2135 23.1699 87.125 23.1699C87.5898 23.1699 88.041 23.097 88.4785 22.9512C88.916 22.8053 89.1895 22.7324 89.2988 22.7324C89.4902 22.7324 89.5859 22.8509 89.5859 23.0879L89.2988 25.4805C89.2806 25.6172 89.2441 25.7174 89.1895 25.7812C89.1439 25.8451 88.9206 25.9225 88.5195 26.0137C88.1276 26.1048 87.4531 26.1504 86.4961 26.1504C85.0924 26.1504 84.0534 25.8268 83.3789 25.1797C82.7044 24.5234 82.3672 23.5482 82.3672 22.2539C82.3672 20.9596 82.7272 17.6693 83.4473 12.3828L82.1074 12.4375C81.8796 12.4284 81.7656 12.3145 81.7656 12.0957L82.1348 9.89453C82.1621 9.6849 82.2806 9.57552 82.4902 9.56641L83.7891 9.52539ZM97.748 3.23633L96.8867 10.9062C98.1172 9.86719 99.3704 9.34766 100.646 9.34766C102.178 9.34766 103.144 10.1862 103.545 11.8633C103.654 12.319 103.709 12.752 103.709 13.1621C103.709 13.5632 103.695 13.8867 103.668 14.1328L102.355 25.5898C102.319 25.8177 102.205 25.9408 102.014 25.959L99.252 26.0547C99.0514 26.0365 98.9512 25.9499 98.9512 25.7949L100.195 14.9668C100.223 14.7298 100.236 14.5156 100.236 14.3242C100.236 13.5768 100.059 13.071 99.7031 12.8066C99.3568 12.5332 98.9102 12.3965 98.3633 12.3965C97.8255 12.3965 97.265 12.5104 96.6816 12.7383L95.2324 25.5898C95.196 25.8177 95.082 25.9408 94.8906 25.959L92.1289 26.0547C91.9284 26.0365 91.8281 25.9499 91.8281 25.7949L94.3711 3.33203C94.3893 3.20443 94.4167 3.11328 94.4531 3.05859C94.4987 3.00391 94.5853 2.97201 94.7129 2.96289L97.3926 2.86719C97.6296 2.89453 97.748 3.01758 97.748 3.23633ZM112.623 4.38477L110.586 19.6836C110.559 19.9115 110.445 20.0299 110.244 20.0391L107.852 20.1348C107.651 20.1257 107.551 20.0299 107.551 19.8477L109.014 4.4668C109.023 4.27539 109.141 4.16602 109.369 4.13867L112.281 4.04297C112.509 4.05208 112.623 4.16602 112.623 4.38477ZM108.412 26.1504C107.82 26.1504 107.337 25.9635 106.963 25.5898C106.598 25.207 106.416 24.724 106.416 24.1406C106.416 23.5482 106.658 23.0195 107.141 22.5547C107.624 22.0898 108.161 21.8574 108.754 21.8574C109.355 21.8574 109.839 22.0443 110.203 22.418C110.568 22.7917 110.75 23.2793 110.75 23.8809C110.75 24.4733 110.508 25.002 110.025 25.4668C109.542 25.9225 109.005 26.1504 108.412 26.1504Z" fill="white"/>
</svg>
