<svg width="159" height="73" viewBox="0 0 159 73" fill="none" xmlns="http://www.w3.org/2000/svg">
<rect width="159" height="73" rx="10" fill="#292929" fill-opacity="0.5"/>
<path d="M35.7148 35.7852L31.3398 35.9355L30.3555 44.5625C30.319 44.7721 30.2005 44.8861 30 44.9043L27.1836 45.0547C26.9831 45.0547 26.8828 44.9681 26.8828 44.7949L29.2617 24.1094C29.2982 23.918 29.4167 23.8132 29.6172 23.7949L37.1094 23.4805C37.3372 23.5078 37.4512 23.6309 37.4512 23.8496L37.1094 26.6797C37.082 26.9167 36.9635 27.0397 36.7539 27.0488L32.3516 27.1992L31.75 32.4492L36.0703 32.2988C36.3073 32.3079 36.4258 32.4264 36.4258 32.6543L36.0703 35.4434C36.0339 35.653 35.9154 35.7669 35.7148 35.7852ZM46.1465 44.7129L46.2559 43.6602C45.153 44.6536 43.9043 45.1504 42.5098 45.1504C41.4616 45.1504 40.6868 44.7676 40.1855 44.002C39.6934 43.2363 39.4473 42.2793 39.4473 41.1309C39.4473 40.9395 39.4655 40.6797 39.502 40.3516L40.8008 28.9082C40.8281 28.6895 40.9421 28.5755 41.1426 28.5664L43.9043 28.457C44.0957 28.4753 44.1914 28.571 44.1914 28.7441L42.9609 39.5312C42.9336 39.7682 42.9199 39.987 42.9199 40.1875C42.9199 40.9531 43.0658 41.4635 43.3574 41.7188C43.6582 41.974 44.1048 42.1016 44.6973 42.1016C45.2988 42.1016 45.8913 41.9876 46.4746 41.7598L47.9238 28.9082C47.9512 28.6895 48.0651 28.5755 48.2656 28.5664L51.0273 28.4707C51.2188 28.4889 51.3145 28.5846 51.3145 28.7578L49.5371 44.5762C49.5098 44.7949 49.3867 44.9134 49.168 44.9316L46.502 45.0547C46.265 45.0456 46.1465 44.9316 46.1465 44.7129ZM58.793 28.8262L58.6426 30.084C59.9551 28.9264 61.2129 28.3477 62.416 28.3477C63.9473 28.3477 64.9134 29.1862 65.3145 30.8633C65.4238 31.319 65.4785 31.752 65.4785 32.1621C65.4785 32.5632 65.4648 32.8867 65.4375 33.1328L64.125 44.5898C64.0885 44.8177 63.9746 44.9408 63.7832 44.959L61.0215 45.0547C60.821 45.0365 60.7207 44.9499 60.7207 44.7949L61.9648 33.9668C61.9922 33.7298 62.0059 33.5156 62.0059 33.3242C62.0059 32.5768 61.8281 32.071 61.4727 31.8066C61.1263 31.5332 60.6842 31.3965 60.1465 31.3965C59.6087 31.3965 59.0482 31.5104 58.4648 31.7383L57.002 44.5898C56.9655 44.8177 56.8516 44.9408 56.6602 44.959L53.8984 45.0547C53.6979 45.0365 53.5977 44.9499 53.5977 44.7949L55.4023 28.8945C55.4388 28.694 55.5527 28.5846 55.7441 28.5664L58.4238 28.4707C58.6699 28.4798 58.793 28.5983 58.793 28.8262ZM73.6953 44.7949L72.5469 28.4297L71.5215 44.6035C71.5033 44.8314 71.3848 44.9499 71.166 44.959L68.5547 45.0547C68.3542 45.0365 68.2539 44.9499 68.2539 44.7949L70.6055 24.1094C70.6237 24 70.651 23.9225 70.6875 23.877C70.7331 23.8314 70.8242 23.804 70.9609 23.7949L74.4062 23.6719C74.625 23.681 74.7435 23.7904 74.7617 24L76.0059 40.4609L80.75 24.1094C80.7956 23.9089 80.9232 23.804 81.1328 23.7949L84.7285 23.6719C84.9564 23.681 85.0703 23.7904 85.0703 24L82.7461 44.6172C82.7188 44.8359 82.5957 44.9499 82.377 44.959L79.5605 45.0547C79.3691 45.0547 79.2734 44.9681 79.2734 44.7949L81.9395 28.1289L77.0449 44.6309C76.972 44.8405 76.8398 44.9499 76.6484 44.959L73.9961 45.0547C73.8138 45.0365 73.7135 44.9499 73.6953 44.7949ZM98.9746 28.8262L97.1973 44.5898C97.1699 44.8268 97.0514 44.9499 96.8418 44.959L94.0801 45.0547C93.8887 45.0365 93.793 44.9499 93.793 44.7949L94.0527 42.9355C93.6335 43.6465 93.1732 44.1934 92.6719 44.5762C92.1797 44.959 91.6237 45.1504 91.0039 45.1504C90.3841 45.1504 89.8555 45.0456 89.418 44.8359C88.9805 44.6172 88.6204 44.3346 88.3379 43.9883C88.0645 43.6328 87.8411 43.209 87.668 42.7168C87.349 41.8418 87.1895 40.6478 87.1895 39.1348C87.1895 37.6126 87.2897 36.3229 87.4902 35.2656C87.6999 34.2083 87.8822 33.4062 88.0371 32.8594C88.1921 32.3034 88.3971 31.7337 88.6523 31.1504C88.9167 30.5671 89.2129 30.0794 89.541 29.6875C90.2884 28.7943 91.2318 28.3477 92.3711 28.3477C93.2188 28.3477 93.8659 28.5527 94.3125 28.9629C94.7591 29.3639 95.1328 29.9609 95.4336 30.7539L95.5977 28.8945C95.6159 28.694 95.7298 28.5846 95.9395 28.5664L98.6191 28.4707C98.8561 28.4889 98.9746 28.6074 98.9746 28.8262ZM90.6348 38.7383C90.6348 40.9167 91.2181 42.0059 92.3848 42.0059C92.8952 42.0059 93.3099 41.7734 93.6289 41.3086C93.9479 40.8346 94.2214 39.8913 94.4492 38.4785C94.6862 37.0658 94.8047 36.0358 94.8047 35.3887C94.8047 34.7415 94.8001 34.3314 94.791 34.1582C94.7819 33.985 94.7637 33.7572 94.7363 33.4746C94.709 33.1829 94.6589 32.9414 94.5859 32.75C94.513 32.5495 94.4173 32.349 94.2988 32.1484C94.0618 31.7565 93.679 31.5605 93.1504 31.5605C92.6217 31.5605 92.2025 31.7975 91.8926 32.2715C91.5827 32.7363 91.3411 33.3607 91.168 34.1445C90.8125 35.8216 90.6348 37.3529 90.6348 38.7383ZM103.418 28.5254C103.628 26.5202 103.764 25.4857 103.828 25.4219C103.892 25.349 103.988 25.3079 104.115 25.2988L106.727 25.2031C106.973 25.2214 107.096 25.3353 107.096 25.5449C106.923 26.5566 106.777 27.5273 106.658 28.457L109.844 28.3477C110.062 28.3568 110.172 28.4753 110.172 28.7031L109.789 30.877C109.753 31.0957 109.639 31.2096 109.447 31.2188L106.316 31.3418C105.697 36.9199 105.387 39.9961 105.387 40.5703C105.387 41.6367 105.842 42.1699 106.754 42.1699C107.219 42.1699 107.67 42.097 108.107 41.9512C108.545 41.8053 108.818 41.7324 108.928 41.7324C109.119 41.7324 109.215 41.8509 109.215 42.0879L108.928 44.4805C108.91 44.6172 108.873 44.7174 108.818 44.7812C108.773 44.8451 108.549 44.9225 108.148 45.0137C107.757 45.1048 107.082 45.1504 106.125 45.1504C104.721 45.1504 103.682 44.8268 103.008 44.1797C102.333 43.5234 101.996 42.5482 101.996 41.2539C101.996 39.9596 102.356 36.6693 103.076 31.3828L101.736 31.4375C101.508 31.4284 101.395 31.3145 101.395 31.0957L101.764 28.8945C101.791 28.6849 101.91 28.5755 102.119 28.5664L103.418 28.5254ZM117.377 22.2363L116.516 29.9062C117.746 28.8672 118.999 28.3477 120.275 28.3477C121.807 28.3477 122.773 29.1862 123.174 30.8633C123.283 31.319 123.338 31.752 123.338 32.1621C123.338 32.5632 123.324 32.8867 123.297 33.1328L121.984 44.5898C121.948 44.8177 121.834 44.9408 121.643 44.959L118.881 45.0547C118.68 45.0365 118.58 44.9499 118.58 44.7949L119.824 33.9668C119.852 33.7298 119.865 33.5156 119.865 33.3242C119.865 32.5768 119.688 32.071 119.332 31.8066C118.986 31.5332 118.539 31.3965 117.992 31.3965C117.454 31.3965 116.894 31.5104 116.311 31.7383L114.861 44.5898C114.825 44.8177 114.711 44.9408 114.52 44.959L111.758 45.0547C111.557 45.0365 111.457 44.9499 111.457 44.7949L114 22.332C114.018 22.2044 114.046 22.1133 114.082 22.0586C114.128 22.0039 114.214 21.972 114.342 21.9629L117.021 21.8672C117.258 21.8945 117.377 22.0176 117.377 22.2363ZM132.252 23.3848L130.215 38.6836C130.188 38.9115 130.074 39.0299 129.873 39.0391L127.48 39.1348C127.28 39.1257 127.18 39.0299 127.18 38.8477L128.643 23.4668C128.652 23.2754 128.77 23.166 128.998 23.1387L131.91 23.043C132.138 23.0521 132.252 23.166 132.252 23.3848ZM128.041 45.1504C127.449 45.1504 126.965 44.9635 126.592 44.5898C126.227 44.207 126.045 43.724 126.045 43.1406C126.045 42.5482 126.286 42.0195 126.77 41.5547C127.253 41.0898 127.79 40.8574 128.383 40.8574C128.984 40.8574 129.467 41.0443 129.832 41.418C130.197 41.7917 130.379 42.2793 130.379 42.8809C130.379 43.4733 130.137 44.002 129.654 44.4668C129.171 44.9225 128.633 45.1504 128.041 45.1504Z" fill="white"/>
</svg>
